<svg width="146" height="146" viewBox="0 0 146 146" fill="none" xmlns="http://www.w3.org/2000/svg">
<path d="M105.85 66.1733C102.903 51.2233 89.7733 40 74 40C61.4767 40 50.6 47.1067 45.1833 57.5067C32.14 58.8933 22 69.9433 22 83.3333C22 97.6767 33.6567 109.333 48 109.333H104.333C116.293 109.333 126 99.6267 126 87.6667C126 76.2267 117.117 66.9533 105.85 66.1733ZM104.333 100.667H48C38.4233 100.667 30.6667 92.91 30.6667 83.3333C30.6667 74.45 37.2967 67.04 46.0933 66.13L50.73 65.6533L52.8967 61.5367C57.0133 53.6067 65.0733 48.6667 74 48.6667C85.3533 48.6667 95.1467 56.7267 97.3567 67.8633L98.6567 74.3633L105.287 74.84C112.047 75.2733 117.333 80.95 117.333 87.6667C117.333 94.8167 111.483 100.667 104.333 100.667ZM56.6667 79H67.7167V92H80.2833V79H91.3333L74 61.6667L56.6667 79Z" fill="#CC0000"/>
<path d="M73 145C112.765 145 145 112.765 145 73C145 33.2355 112.765 1 73 1C33.2355 1 1 33.2355 1 73C1 112.765 33.2355 145 73 145Z" stroke="#CC0000"/>
</svg>
